<svg width="243" height="168" viewBox="0 0 243 168" fill="none" xmlns="http://www.w3.org/2000/svg">
<g filter="url(#filter0_dii_2517_1536)">
<rect x="67" y="30" width="109" height="34" rx="14" fill="#AC00FF"/>
<rect x="67" y="30" width="109" height="34" rx="14" fill="url(#paint0_radial_2517_1536)" fill-opacity="0.6"/>
<rect x="67" y="30" width="109" height="34" rx="14" fill="url(#paint1_radial_2517_1536)" fill-opacity="0.6"/>
<rect x="67" y="30" width="109" height="34" rx="14" fill="url(#paint2_radial_2517_1536)" fill-opacity="0.4"/>
<rect x="67.1" y="30.1" width="108.8" height="33.8" rx="13.9" stroke="url(#paint3_linear_2517_1536)" stroke-opacity="0.2" stroke-width="0.2"/>
<path d="M98.5781 52H92.5703V50.5781H98.5781V52ZM93 52H91.2266V40.625H93V52ZM97.7812 46.8359H92.5703V45.4297H97.7812V46.8359ZM98.5156 42.0547H92.5703V40.625H98.5156V42.0547ZM101.789 52H100.086V43.5469H101.695L101.789 45.25V52ZM100.812 47.4453C100.812 46.6693 100.94 45.9766 101.195 45.3672C101.456 44.7578 101.836 44.276 102.336 43.9219C102.841 43.5677 103.469 43.3906 104.219 43.3906C105 43.3906 105.641 43.6224 106.141 44.0859C106.646 44.5495 106.898 45.3099 106.898 46.3672V52H105.195V46.4922C105.195 46.0755 105.128 45.7422 104.992 45.4922C104.857 45.2422 104.667 45.0625 104.422 44.9531C104.177 44.8438 103.885 44.7891 103.547 44.7891C103.167 44.7891 102.844 44.8594 102.578 45C102.318 45.1406 102.107 45.3359 101.945 45.5859C101.784 45.8307 101.667 46.1146 101.594 46.4375C101.521 46.7552 101.484 47.0964 101.484 47.4609L100.812 47.4453ZM105.891 47.0781C105.896 46.4219 106.023 45.8151 106.273 45.2578C106.529 44.6953 106.904 44.2448 107.398 43.9062C107.893 43.5625 108.5 43.3906 109.219 43.3906C109.807 43.3906 110.31 43.4974 110.727 43.7109C111.143 43.9193 111.461 44.2526 111.68 44.7109C111.904 45.1641 112.016 45.7578 112.016 46.4922V52H110.305V46.4844C110.305 46.0417 110.237 45.6979 110.102 45.4531C109.971 45.2083 109.784 45.0365 109.539 44.9375C109.294 44.8385 109.005 44.7891 108.672 44.7891C108.37 44.7891 108.104 44.8438 107.875 44.9531C107.646 45.0573 107.453 45.2057 107.297 45.3984C107.146 45.5859 107.029 45.8021 106.945 46.0469C106.867 46.2917 106.828 46.5547 106.828 46.8359L105.891 47.0781ZM118.914 46.25C118.914 45.776 118.779 45.401 118.508 45.125C118.242 44.8438 117.841 44.7031 117.305 44.7031C116.977 44.7031 116.69 44.7604 116.445 44.875C116.201 44.9844 116.01 45.1328 115.875 45.3203C115.74 45.5078 115.672 45.7161 115.672 45.9453H113.969C113.969 45.513 114.109 45.1042 114.391 44.7188C114.672 44.3281 115.07 44.0104 115.586 43.7656C116.102 43.5156 116.706 43.3906 117.398 43.3906C118.023 43.3906 118.578 43.4974 119.062 43.7109C119.552 43.9193 119.935 44.237 120.211 44.6641C120.487 45.0911 120.625 45.625 120.625 46.2656V50.0938C120.625 50.4323 120.651 50.7578 120.703 51.0703C120.755 51.3776 120.831 51.6458 120.93 51.875V52H119.18C119.096 51.8125 119.031 51.5703 118.984 51.2734C118.938 50.9714 118.914 50.6823 118.914 50.4062V46.25ZM119.18 47.9688H117.812C117.057 47.9688 116.482 48.099 116.086 48.3594C115.69 48.6146 115.492 48.9792 115.492 49.4531C115.492 49.8229 115.617 50.1328 115.867 50.3828C116.117 50.6328 116.477 50.7578 116.945 50.7578C117.357 50.7578 117.719 50.6745 118.031 50.5078C118.344 50.3359 118.589 50.125 118.766 49.875C118.943 49.625 119.036 49.3854 119.047 49.1562L119.672 49.9375C119.62 50.1562 119.516 50.3932 119.359 50.6484C119.208 50.8984 119.005 51.138 118.75 51.3672C118.495 51.5964 118.193 51.7865 117.844 51.9375C117.495 52.0833 117.096 52.1562 116.648 52.1562C116.086 52.1562 115.589 52.0469 115.156 51.8281C114.729 51.6094 114.393 51.3099 114.148 50.9297C113.909 50.5443 113.789 50.1172 113.789 49.6484C113.789 48.7422 114.128 48.0521 114.805 47.5781C115.487 47.099 116.427 46.8594 117.625 46.8594H119.18V47.9688ZM123.734 40.3906C124.052 40.3906 124.297 40.4818 124.469 40.6641C124.641 40.8411 124.727 41.0599 124.727 41.3203C124.727 41.5807 124.641 41.7995 124.469 41.9766C124.297 42.1536 124.052 42.2422 123.734 42.2422C123.422 42.2422 123.18 42.1536 123.008 41.9766C122.841 41.7995 122.758 41.5807 122.758 41.3203C122.758 41.0599 122.841 40.8411 123.008 40.6641C123.18 40.4818 123.422 40.3906 123.734 40.3906ZM124.594 52H122.891V43.5469H124.594V52ZM128.633 52H126.93V40H128.633V52ZM143.188 40.625V48.2578C143.188 49.1224 142.997 49.8438 142.617 50.4219C142.237 50.9948 141.729 51.4271 141.094 51.7188C140.458 52.0104 139.758 52.1562 138.992 52.1562C138.195 52.1562 137.479 52.0104 136.844 51.7188C136.214 51.4271 135.716 50.9948 135.352 50.4219C134.987 49.8438 134.805 49.1224 134.805 48.2578V40.625H136.562V48.2578C136.562 48.8255 136.661 49.2917 136.859 49.6562C137.062 50.0208 137.346 50.2917 137.711 50.4688C138.076 50.6458 138.503 50.7344 138.992 50.7344C139.487 50.7344 139.914 50.6458 140.273 50.4688C140.638 50.2917 140.919 50.0208 141.117 49.6562C141.315 49.2917 141.414 48.8255 141.414 48.2578V40.625H143.188ZM148.359 52.1562C147.599 52.1562 146.956 52.0208 146.43 51.75C145.909 51.4792 145.513 51.1328 145.242 50.7109C144.971 50.2839 144.836 49.8359 144.836 49.3672H146.508C146.529 49.7318 146.633 50.0234 146.82 50.2422C147.008 50.4609 147.24 50.6172 147.516 50.7109C147.797 50.8047 148.081 50.8516 148.367 50.8516C148.732 50.8516 149.036 50.8047 149.281 50.7109C149.526 50.612 149.711 50.4792 149.836 50.3125C149.966 50.1406 150.031 49.9453 150.031 49.7266C150.031 49.5339 149.984 49.3568 149.891 49.1953C149.802 49.0286 149.622 48.8776 149.352 48.7422C149.086 48.6068 148.688 48.4844 148.156 48.375C147.547 48.25 147.013 48.0859 146.555 47.8828C146.102 47.6745 145.75 47.4115 145.5 47.0938C145.25 46.7708 145.125 46.375 145.125 45.9062C145.125 45.4531 145.255 45.0365 145.516 44.6562C145.776 44.276 146.146 43.9714 146.625 43.7422C147.109 43.5078 147.677 43.3906 148.328 43.3906C149.021 43.3906 149.615 43.5104 150.109 43.75C150.609 43.9844 150.99 44.3021 151.25 44.7031C151.516 45.1042 151.648 45.5547 151.648 46.0547H149.945C149.945 45.7109 149.807 45.3984 149.531 45.1172C149.255 44.8359 148.854 44.6953 148.328 44.6953C147.974 44.6953 147.682 44.75 147.453 44.8594C147.229 44.9688 147.062 45.112 146.953 45.2891C146.849 45.4609 146.797 45.6458 146.797 45.8438C146.797 46.0365 146.849 46.2057 146.953 46.3516C147.057 46.4922 147.24 46.6198 147.5 46.7344C147.766 46.8438 148.143 46.9531 148.633 47.0625C149.299 47.2083 149.862 47.388 150.32 47.6016C150.779 47.8099 151.125 48.0781 151.359 48.4062C151.599 48.7344 151.719 49.1432 151.719 49.6328C151.719 50.1224 151.578 50.5599 151.297 50.9453C151.021 51.3255 150.63 51.6224 150.125 51.8359C149.625 52.0495 149.036 52.1562 148.359 52.1562Z" fill="white"/>
</g>
<defs>
<filter id="filter0_dii_2517_1536" x="0" y="0" width="243" height="168" filterUnits="userSpaceOnUse" color-interpolation-filters="sRGB">
<feFlood flood-opacity="0" result="BackgroundImageFix"/>
<feColorMatrix in="SourceAlpha" type="matrix" values="0 0 0 0 0 0 0 0 0 0 0 0 0 0 0 0 0 0 127 0" result="hardAlpha"/>
<feMorphology radius="14" operator="erode" in="SourceAlpha" result="effect1_dropShadow_2517_1536"/>
<feOffset dy="37"/>
<feGaussianBlur stdDeviation="40.5"/>
<feComposite in2="hardAlpha" operator="out"/>
<feColorMatrix type="matrix" values="0 0 0 0 0.67451 0 0 0 0 0 0 0 0 0 1 0 0 0 0.25 0"/>
<feBlend mode="normal" in2="BackgroundImageFix" result="effect1_dropShadow_2517_1536"/>
<feBlend mode="normal" in="SourceGraphic" in2="effect1_dropShadow_2517_1536" result="shape"/>
<feColorMatrix in="SourceAlpha" type="matrix" values="0 0 0 0 0 0 0 0 0 0 0 0 0 0 0 0 0 0 127 0" result="hardAlpha"/>
<feOffset/>
<feGaussianBlur stdDeviation="44"/>
<feComposite in2="hardAlpha" operator="arithmetic" k2="-1" k3="1"/>
<feColorMatrix type="matrix" values="0 0 0 0 1 0 0 0 0 1 0 0 0 0 1 0 0 0 0.25 0"/>
<feBlend mode="normal" in2="shape" result="effect2_innerShadow_2517_1536"/>
<feColorMatrix in="SourceAlpha" type="matrix" values="0 0 0 0 0 0 0 0 0 0 0 0 0 0 0 0 0 0 127 0" result="hardAlpha"/>
<feOffset dy="4"/>
<feGaussianBlur stdDeviation="4.5"/>
<feComposite in2="hardAlpha" operator="arithmetic" k2="-1" k3="1"/>
<feColorMatrix type="matrix" values="0 0 0 0 1 0 0 0 0 1 0 0 0 0 1 0 0 0 0.25 0"/>
<feBlend mode="normal" in2="effect2_innerShadow_2517_1536" result="effect3_innerShadow_2517_1536"/>
</filter>
<radialGradient id="paint0_radial_2517_1536" cx="0" cy="0" r="1" gradientUnits="userSpaceOnUse" gradientTransform="translate(121.734 64) rotate(-90) scale(46.8302 214.872)">
<stop offset="0.0464023" stop-color="#21FDF6"/>
<stop offset="0.774152" stop-color="#B721FF" stop-opacity="0"/>
</radialGradient>
<radialGradient id="paint1_radial_2517_1536" cx="0" cy="0" r="1" gradientUnits="userSpaceOnUse" gradientTransform="translate(121.734 30) rotate(90) scale(34 85.4984)">
<stop stop-color="#E0A1FF"/>
<stop offset="0.262734" stop-color="#B721FF" stop-opacity="0"/>
</radialGradient>
<radialGradient id="paint2_radial_2517_1536" cx="0" cy="0" r="1" gradientUnits="userSpaceOnUse" gradientTransform="translate(119.395 58.2264) rotate(5.85886) scale(34.5647 18.2076)">
<stop offset="0.0464023" stop-color="#21FDF6" stop-opacity="0.7"/>
<stop offset="1" stop-color="#B721FF" stop-opacity="0"/>
</radialGradient>
<linearGradient id="paint3_linear_2517_1536" x1="121.5" y1="30" x2="121.5" y2="64" gradientUnits="userSpaceOnUse">
<stop stop-color="white" stop-opacity="0"/>
<stop offset="1" stop-color="white"/>
</linearGradient>
</defs>
</svg>
